# xmcd database file
#
# Track frame offsets:
# 150
# 13692
# 29249
# 43051
# 56431
# 70071
# 84165
# 99495
# 114434
# 127391
# 140705
# 155775
# 168667
# 182534
# 194906
# 209488
#
# Disc length: 2951 seconds
#
# Revision: 0
# Processed by: cddbd v1.4PL0 Copyright (c) Steve Scherf et al.
# Submitted via: CD-Runner 2003.05
#
DISCID=f50b8510
DTITLE=Roosevelt Sykes and his original Honey Drippers - Boogie Honky Tonk
DYEAR=1900
DGENRE=Boogie Woogie
TTITLE0=Mellow Queen
TTITLE1=I Wonder
TTITLE2=Don't Push Me Around
TTITLE3=Peeping Tom
TTITLE4=Tonight
TTITLE5=Sunny Road
TTITLE6=Flames of Jive
TTITLE7=Bop De Bip
TTITLE8=Bobby Sox Blues
TTITLE9=Kilroy's In Town
TTITLE10=BVD Blues
TTITLE11=I'm Her Honeydripper
TTITLE12=Boogie Honky Tonky
TTITLE13=Booze Blues
TTITLE14=Time Wasted On You
TTITLE15=High As A Georgia Pine
EXTD=
EXTT0=
EXTT1=
EXTT2=
EXTT3=
EXTT4=
EXTT5=
EXTT6=
EXTT7=
EXTT8=
EXTT9=
EXTT10=
EXTT11=
EXTT12=
EXTT13=
EXTT14=
EXTT15=
PLAYORDER=
